<svg xmlns="http://www.w3.org/2000/svg" viewBox="0 0 1440 900" preserveAspectRatio="xMidYMid slice">
<defs>
  <linearGradient id="g-sky" x1="0" y1="0" x2="0" y2="1">
    <stop offset="0%" stop-color="#7AABCC"/>
    <stop offset="35%" stop-color="#A8C6DC"/>
    <stop offset="70%" stop-color="#C8DCE8"/>
    <stop offset="100%" stop-color="#D8E8F0"/>
  </linearGradient>
  <radialGradient id="g-sun" cx="78%" cy="14%" r="38%">
    <stop offset="0%" stop-color="#FFFCE8" stop-opacity="0.42"/>
    <stop offset="50%" stop-color="#FFF8E0" stop-opacity="0.14"/>
    <stop offset="100%" stop-color="#FFFFFF" stop-opacity="0"/>
  </radialGradient>
  <linearGradient id="g-wall-left-up" x1="0" y1="0" x2="0" y2="1">
    <stop offset="0%" stop-color="#F4F3F0"/>
    <stop offset="100%" stop-color="#ECEAE6"/>
  </linearGradient>
  <linearGradient id="g-wall-left-lo" x1="0" y1="0" x2="0" y2="1">
    <stop offset="0%" stop-color="#EDECEA"/>
    <stop offset="100%" stop-color="#E4E2DE"/>
  </linearGradient>
  <linearGradient id="g-garage-wall" x1="0" y1="0" x2="0" y2="1">
    <stop offset="0%" stop-color="#E8E6E2"/>
    <stop offset="100%" stop-color="#DEDAD5"/>
  </linearGradient>
  <linearGradient id="g-accent-wood" x1="0" y1="0" x2="0" y2="1">
    <stop offset="0%" stop-color="#A07850"/>
    <stop offset="50%" stop-color="#8A6440"/>
    <stop offset="100%" stop-color="#7A5A38"/>
  </linearGradient>
  <linearGradient id="g-roof-main" x1="0" y1="0" x2="0" y2="1">
    <stop offset="0%" stop-color="#1C1C1C"/>
    <stop offset="100%" stop-color="#2A2A2A"/>
  </linearGradient>
  <linearGradient id="g-roof-garage" x1="0" y1="0" x2="0" y2="1">
    <stop offset="0%" stop-color="#181818"/>
    <stop offset="100%" stop-color="#242424"/>
  </linearGradient>
  <linearGradient id="g-soffit" x1="0" y1="0" x2="0" y2="1">
    <stop offset="0%" stop-color="#C8C4BE"/>
    <stop offset="100%" stop-color="#B8B4AE"/>
  </linearGradient>
  <linearGradient id="g-shutter-body" x1="0" y1="0" x2="0" y2="1">
    <stop offset="0%" stop-color="#3A3A3A"/>
    <stop offset="30%" stop-color="#2E2E2E"/>
    <stop offset="80%" stop-color="#252525"/>
    <stop offset="100%" stop-color="#1E1E1E"/>
  </linearGradient>
  <linearGradient id="g-slat-top" x1="0" y1="0" x2="0" y2="1">
    <stop offset="0%" stop-color="rgba(255,255,255,0.13)"/>
    <stop offset="40%" stop-color="rgba(255,255,255,0.04)"/>
    <stop offset="100%" stop-color="rgba(0,0,0,0.12)"/>
  </linearGradient>
  <linearGradient id="g-glass" x1="0.1" y1="0" x2="0.9" y2="1">
    <stop offset="0%" stop-color="#B8D0E4"/>
    <stop offset="30%" stop-color="#CCE0F0"/>
    <stop offset="70%" stop-color="#A8C0D8"/>
    <stop offset="100%" stop-color="#90AABB"/>
  </linearGradient>
  <linearGradient id="g-glass-entry" x1="0" y1="0" x2="1" y2="1">
    <stop offset="0%" stop-color="#C4D8EC" stop-opacity="0.85"/>
    <stop offset="50%" stop-color="#D4E8F4" stop-opacity="0.75"/>
    <stop offset="100%" stop-color="#A8BECE" stop-opacity="0.85"/>
  </linearGradient>
  <linearGradient id="g-drive" x1="0" y1="0" x2="0" y2="1">
    <stop offset="0%" stop-color="#C8C4BE"/>
    <stop offset="50%" stop-color="#C0BCB6"/>
    <stop offset="100%" stop-color="#ACA8A2"/>
  </linearGradient>
  <linearGradient id="g-garden" x1="0" y1="0" x2="0" y2="1">
    <stop offset="0%" stop-color="#4A6438"/>
    <stop offset="100%" stop-color="#3A5030"/>
  </linearGradient>
  <linearGradient id="g-gravel" x1="0" y1="0" x2="0" y2="1">
    <stop offset="0%" stop-color="#C0BABA"/>
    <stop offset="100%" stop-color="#AEAAAA"/>
  </linearGradient>
  <linearGradient id="g-shadow-l" x1="1" y1="0" x2="0" y2="0">
    <stop offset="0%" stop-color="rgba(0,0,0,0)"/>
    <stop offset="100%" stop-color="rgba(0,0,0,0.18)"/>
  </linearGradient>
  <linearGradient id="g-ground-shadow" x1="0" y1="0" x2="0" y2="1">
    <stop offset="0%" stop-color="rgba(0,0,0,0.22)"/>
    <stop offset="100%" stop-color="rgba(0,0,0,0)"/>
  </linearGradient>
  <linearGradient id="g-wall-shade" x1="0" y1="0" x2="0" y2="1">
    <stop offset="0%" stop-color="rgba(0,0,0,0)"/>
    <stop offset="100%" stop-color="rgba(0,0,0,0.10)"/>
  </linearGradient>
  <radialGradient id="g-foliage-a" cx="45%" cy="38%" r="60%">
    <stop offset="0%" stop-color="#5E8248"/>
    <stop offset="60%" stop-color="#4A6C38"/>
    <stop offset="100%" stop-color="#38542C"/>
  </radialGradient>
  <radialGradient id="g-foliage-b" cx="40%" cy="35%" r="58%">
    <stop offset="0%" stop-color="#527040"/>
    <stop offset="100%" stop-color="#344C28"/>
  </radialGradient>
  <radialGradient id="g-cloud" cx="50%" cy="50%" r="50%">
    <stop offset="0%" stop-color="rgba(255,255,255,0.92)"/>
    <stop offset="70%" stop-color="rgba(245,248,252,0.70)"/>
    <stop offset="100%" stop-color="rgba(230,238,248,0)"/>
  </radialGradient>
  <filter id="f-blur2">
    <feGaussianBlur stdDeviation="2"/>
  </filter>
  <filter id="f-blur4">
    <feGaussianBlur stdDeviation="4"/>
  </filter>
  <filter id="f-blur8">
    <feGaussianBlur stdDeviation="8"/>
  </filter>
  <clipPath id="clip-house">
    <rect x="190" y="100" width="1070" height="620"/>
  </clipPath>
</defs>

<!-- ====== 空 ====== -->
<rect width="1440" height="900" fill="url(#g-sky)"/>
<rect width="1440" height="900" fill="url(#g-sun)"/>

<!-- 雲 A（右上） -->
<ellipse cx="1080" cy="95" rx="180" ry="44" fill="url(#g-cloud)" opacity="0.88"/>
<ellipse cx="1200" cy="82" rx="130" ry="36" fill="url(#g-cloud)" opacity="0.80"/>
<ellipse cx="1010" cy="112" rx="110" ry="30" fill="url(#g-cloud)" opacity="0.72"/>
<ellipse cx="960" cy="96" rx="80" ry="26" fill="rgba(255,255,255,0.55)"/>
<!-- 雲 B（左） -->
<ellipse cx="240" cy="138" rx="140" ry="34" fill="url(#g-cloud)" opacity="0.72"/>
<ellipse cx="350" cy="124" rx="100" ry="28" fill="url(#g-cloud)" opacity="0.65"/>
<ellipse cx="160" cy="148" rx="85" ry="22" fill="rgba(255,255,255,0.48)"/>
<!-- 雲 C（中央） -->
<ellipse cx="650" cy="88" rx="92" ry="22" fill="rgba(255,255,255,0.40)"/>
<ellipse cx="720" cy="80" rx="68" ry="18" fill="rgba(255,255,255,0.32)"/>

<!-- ====== 遠景（後ろの建物シルエット） ====== -->
<rect x="0" y="350" width="190" height="380" fill="#C2CAD0" opacity="0.30"/>
<rect x="1280" y="320" width="160" height="410" fill="#C2CAD0" opacity="0.25"/>

<!-- ====== 地面・ドライブウェイ ====== -->
<rect x="0" y="718" width="1440" height="182" fill="url(#g-drive)"/>
<!-- コンクリート境界線（伸縮目地） -->
<line x1="0" y1="760" x2="1440" y2="760" stroke="#B4B0AA" stroke-width="1.2" opacity="0.55"/>
<line x1="0" y1="800" x2="1440" y2="800" stroke="#B4B0AA" stroke-width="0.8" opacity="0.38"/>
<line x1="0" y1="838" x2="1440" y2="838" stroke="#B4B0AA" stroke-width="0.7" opacity="0.28"/>
<!-- ドライブウェイ中央区切り -->
<line x1="840" y1="718" x2="1440" y2="718" stroke="#B8B4AE" stroke-width="1.5" opacity="0.40"/>
<!-- 車止め -->
<rect x="660" y="714" width="560" height="7" rx="3" fill="#AAABA8" opacity="0.60"/>
<!-- 地面前景ライトライン -->
<rect x="0" y="718" width="1440" height="8" fill="url(#g-ground-shadow)"/>

<!-- ====== 手前 植栽ゾーン ====== -->
<rect x="190" y="690" width="470" height="30" fill="#3A5030" opacity="0.55"/>
<!-- 低木 左 -->
<ellipse cx="230" cy="696" rx="44" ry="24" fill="url(#g-foliage-a)" opacity="0.92"/>
<ellipse cx="210" cy="702" rx="28" ry="16" fill="url(#g-foliage-b)" opacity="0.80"/>
<ellipse cx="258" cy="700" rx="32" ry="18" fill="url(#g-foliage-a)" opacity="0.78"/>
<!-- 低木 中 -->
<ellipse cx="380" cy="694" rx="40" ry="22" fill="url(#g-foliage-b)" opacity="0.88"/>
<ellipse cx="360" cy="700" rx="26" ry="14" fill="url(#g-foliage-a)" opacity="0.75"/>
<ellipse cx="405" cy="698" rx="30" ry="16" fill="url(#g-foliage-b)" opacity="0.72"/>
<!-- 右 小グラス -->
<ellipse cx="540" cy="698" rx="35" ry="20" fill="url(#g-foliage-a)" opacity="0.82"/>
<ellipse cx="520" cy="704" rx="22" ry="12" fill="#3A5030" opacity="0.68"/>

<!-- ====== 街路樹（左） ====== -->
<rect x="72" y="480" width="20" height="258" fill="#6A5540"/>
<ellipse cx="82" cy="456" rx="72" ry="88" fill="url(#g-foliage-a)" opacity="0.82"/>
<ellipse cx="62" cy="492" rx="50" ry="62" fill="url(#g-foliage-b)" opacity="0.70"/>
<ellipse cx="106" cy="480" rx="44" ry="56" fill="url(#g-foliage-a)" opacity="0.66"/>
<ellipse cx="82" cy="430" rx="55" ry="64" fill="url(#g-foliage-b)" opacity="0.60"/>

<!-- ====== 街路樹（右） ====== -->
<rect x="1380" y="440" width="18" height="300" fill="#6A5540"/>
<ellipse cx="1389" cy="416" rx="64" ry="78" fill="url(#g-foliage-a)" opacity="0.78"/>
<ellipse cx="1370" cy="448" rx="46" ry="58" fill="url(#g-foliage-b)" opacity="0.68"/>
<ellipse cx="1410" cy="440" rx="40" ry="52" fill="url(#g-foliage-a)" opacity="0.62"/>

<!-- ====== 住宅本体 ====== -->

<!-- ── 左棟シャドウ（奥行き演出） ── -->
<rect x="186" y="168" width="470" height="555" fill="url(#g-shadow-l)" opacity="0.3"/>

<!-- ── 左棟 上階（外壁） ── -->
<rect x="192" y="168" width="464" height="264" fill="url(#g-wall-left-up)"/>
<!-- 壁面陰影 -->
<rect x="192" y="168" width="464" height="264" fill="url(#g-wall-shade)"/>

<!-- ── 木目調 アクセントサイディング ── -->
<rect x="192" y="294" width="464" height="52" fill="url(#g-accent-wood)"/>
<!-- 木目横ライン -->
<line x1="192" y1="308" x2="656" y2="308" stroke="rgba(0,0,0,0.18)" stroke-width="1"/>
<line x1="192" y1="322" x2="656" y2="322" stroke="rgba(0,0,0,0.14)" stroke-width="1"/>
<line x1="192" y1="336" x2="656" y2="336" stroke="rgba(0,0,0,0.12)" stroke-width="1"/>
<!-- 木目ハイライト -->
<rect x="192" y="294" width="464" height="8" fill="rgba(255,255,255,0.14)"/>

<!-- ── 左棟 下階（外壁） ── -->
<rect x="192" y="346" width="464" height="374" fill="url(#g-wall-left-lo)"/>
<rect x="192" y="346" width="464" height="374" fill="url(#g-wall-shade)"/>

<!-- ── 左棟 屋根（フラットルーフ） ── -->
<rect x="180" y="118" width="490" height="56" fill="url(#g-roof-main)"/>
<!-- 屋根ハイライト（天端） -->
<rect x="180" y="118" width="490" height="5" fill="rgba(255,255,255,0.08)"/>
<!-- ソフィット（軒天） -->
<rect x="180" y="162" width="490" height="10" fill="url(#g-soffit)"/>
<!-- 屋根左側面 -->
<polygon points="180,118 192,118 192,174 180,174" fill="#151515"/>

<!-- ── 左棟 2F 窓 左 ── -->
<!-- 外付けシャッターボックス -->
<rect x="220" y="188" width="152" height="14" rx="2" fill="#D0CECB"/>
<!-- サッシ枠 -->
<rect x="220" y="200" width="152" height="84" rx="1" fill="#D4D2CE"/>
<!-- ガラス 2分割 -->
<rect x="228" y="207" width="65" height="70" fill="url(#g-glass)"/>
<rect x="299" y="207" width="65" height="70" fill="url(#g-glass)"/>
<!-- 中桟 -->
<rect x="295" y="207" width="6" height="70" fill="#D4D2CE"/>
<!-- ガラス反射（斜め白線） -->
<line x1="232" y1="210" x2="248" y2="224" stroke="rgba(255,255,255,0.30)" stroke-width="2.5"/>
<line x1="303" y1="210" x2="316" y2="223" stroke="rgba(255,255,255,0.22)" stroke-width="1.8"/>
<!-- 窓外枠シャドウ -->
<rect x="220" y="200" width="152" height="84" rx="1" fill="none" stroke="#BCBAB6" stroke-width="1.5"/>

<!-- ── 左棟 2F 窓 右 ── -->
<rect x="420" y="188" width="152" height="14" rx="2" fill="#D0CECB"/>
<rect x="420" y="200" width="152" height="84" rx="1" fill="#D4D2CE"/>
<rect x="428" y="207" width="65" height="70" fill="url(#g-glass)"/>
<rect x="499" y="207" width="65" height="70" fill="url(#g-glass)"/>
<rect x="495" y="207" width="6" height="70" fill="#D4D2CE"/>
<line x1="432" y1="210" x2="448" y2="224" stroke="rgba(255,255,255,0.28)" stroke-width="2.5"/>
<line x1="503" y1="210" x2="516" y2="223" stroke="rgba(255,255,255,0.20)" stroke-width="1.8"/>
<rect x="420" y="200" width="152" height="84" rx="1" fill="none" stroke="#BCBAB6" stroke-width="1.5"/>

<!-- ── 玄関エリア（下階 左） ── -->
<!-- ガラスサイドウォール -->
<rect x="200" y="362" width="88" height="328" fill="url(#g-glass-entry)" opacity="0.88"/>
<rect x="200" y="362" width="88" height="328" fill="none" stroke="#C8C6C2" stroke-width="1.5"/>
<!-- ガラス縦桟 -->
<line x1="244" y1="362" x2="244" y2="690" stroke="#C8C6C2" stroke-width="2"/>
<!-- ガラス横桟 -->
<line x1="200" y1="480" x2="288" y2="480" stroke="#C8C6C2" stroke-width="1.5"/>
<line x1="200" y1="575" x2="288" y2="575" stroke="#C8C6C2" stroke-width="1.5"/>
<!-- ガラス反射 -->
<line x1="204" y1="368" x2="218" y2="382" stroke="rgba(255,255,255,0.32)" stroke-width="3"/>
<line x1="204" y1="400" x2="210" y2="406" stroke="rgba(255,255,255,0.22)" stroke-width="1.5"/>

<!-- 玄関ドア本体 -->
<rect x="290" y="430" width="130" height="260" fill="#2A2A28"/>
<!-- ドア木目パネル -->
<rect x="298" y="438" width="114" height="112" rx="2" fill="#5A4838"/>
<rect x="298" y="560" width="114" height="122" rx="2" fill="#5A4838"/>
<!-- パネル内木目線 -->
<line x1="298" y1="470" x2="412" y2="470" stroke="rgba(0,0,0,0.20)" stroke-width="0.8"/>
<line x1="298" y1="502" x2="412" y2="502" stroke="rgba(0,0,0,0.20)" stroke-width="0.8"/>
<line x1="298" y1="534" x2="412" y2="534" stroke="rgba(0,0,0,0.20)" stroke-width="0.8"/>
<line x1="298" y1="590" x2="412" y2="590" stroke="rgba(0,0,0,0.20)" stroke-width="0.8"/>
<line x1="298" y1="620" x2="412" y2="620" stroke="rgba(0,0,0,0.20)" stroke-width="0.8"/>
<line x1="298" y1="650" x2="412" y2="650" stroke="rgba(0,0,0,0.20)" stroke-width="0.8"/>
<!-- ドアノブ -->
<rect x="398" y="554" width="10" height="28" rx="5" fill="#C4A050"/>
<rect x="398" y="554" width="10" height="4" rx="2" fill="rgba(255,255,255,0.28)"/>
<circle cx="410" cy="568" r="5" fill="#B89040"/>
<!-- ドア枠シャドウ -->
<rect x="290" y="430" width="130" height="260" fill="none" stroke="#1E1E1C" stroke-width="2"/>

<!-- 玄関庇 -->
<rect x="270" y="420" width="170" height="14" rx="2" fill="#1E1E1E"/>
<rect x="274" y="430" width="4" height="20" fill="#1A1A1A"/>
<rect x="432" y="430" width="4" height="20" fill="#1A1A1A"/>
<rect x="270" y="420" width="170" height="4" fill="rgba(255,255,255,0.08)"/>

<!-- 玄関右 縦長窓 -->
<rect x="430" y="390" width="68" height="200" rx="1" fill="url(#g-glass-entry)"/>
<rect x="430" y="390" width="68" height="200" rx="1" fill="none" stroke="#C8C6C2" stroke-width="1.5"/>
<line x1="464" y1="390" x2="464" y2="590" stroke="#C8C6C2" stroke-width="1.5"/>
<line x1="430" y1="490" x2="498" y2="490" stroke="#C8C6C2" stroke-width="1"/>

<!-- 1F 右窓 -->
<rect x="510" y="420" width="122" height="96" rx="1" fill="#D4D2CE"/>
<rect x="517" y="428" width="108" height="80" fill="url(#g-glass)"/>
<line x1="571" y1="428" x2="571" y2="508" stroke="#D4D2CE" stroke-width="3"/>
<line x1="517" y1="428" x2="530" y2="441" stroke="rgba(255,255,255,0.26)" stroke-width="2.5"/>
<rect x="510" y="420" width="122" height="96" rx="1" fill="none" stroke="#BCBAB6" stroke-width="1.5"/>
<rect x="510" y="408" width="122" height="14" rx="1" fill="#D0CECB"/>

<!-- ── ガレージ棟 ── -->

<!-- ガレージ棟 外壁 -->
<rect x="656" y="168" width="604" height="554" fill="url(#g-garage-wall)"/>
<rect x="656" y="168" width="604" height="554" fill="url(#g-wall-shade)"/>

<!-- ガレージ棟 屋根 -->
<rect x="648" y="108" width="618" height="66" fill="url(#g-roof-garage)"/>
<rect x="648" y="108" width="618" height="5" fill="rgba(255,255,255,0.07)"/>
<rect x="648" y="162" width="618" height="10" fill="url(#g-soffit)"/>

<!-- 棟 境界の見切り材 -->
<rect x="652" y="108" width="8" height="620" fill="#181818"/>

<!-- ガレージ上部 壁材アクセント（横目地） -->
<rect x="660" y="178" width="596" height="36" fill="rgba(0,0,0,0.04)"/>
<line x1="660" y1="214" x2="1256" y2="214" stroke="rgba(0,0,0,0.10)" stroke-width="1.2"/>

<!-- ガレージ 小窓 右上（採光用） -->
<rect x="1170" y="226" width="70" height="52" rx="1" fill="#D4D2CE"/>
<rect x="1176" y="232" width="58" height="40" fill="url(#g-glass)"/>
<line x1="1205" y1="232" x2="1205" y2="272" stroke="#D4D2CE" stroke-width="2"/>
<rect x="1170" y="218" width="70" height="10" rx="1" fill="#D0CECB"/>

<!-- ====== ガレージシャッター（メイン） ====== -->
<!-- 開口部コンクリート枠 -->
<rect x="668" y="292" width="560" height="432" fill="#2A2928" rx="2"/>

<!-- シャッターガイドレール（左） -->
<rect x="668" y="292" width="18" height="432" fill="#1E1E1E"/>
<rect x="671" y="292" width="4" height="432" fill="rgba(255,255,255,0.07)"/>
<rect x="679" y="292" width="3" height="432" fill="rgba(0,0,0,0.25)"/>

<!-- シャッターガイドレール（右） -->
<rect x="1210" y="292" width="18" height="432" fill="#1E1E1E"/>
<rect x="1221" y="292" width="4" height="432" fill="rgba(255,255,255,0.07)"/>
<rect x="1214" y="292" width="3" height="432" fill="rgba(0,0,0,0.25)"/>

<!-- シャッター本体 -->
<rect x="686" y="300" width="524" height="420" fill="url(#g-shutter-body)"/>

<!-- スラット（24px ピッチ × 17段） -->
<!-- スラット 1 -->
<rect x="686" y="300" width="524" height="24" fill="url(#g-slat-top)"/>
<rect x="686" y="322" width="524" height="2" fill="rgba(0,0,0,0.38)"/>
<rect x="686" y="324" width="524" height="1" fill="rgba(255,255,255,0.06)"/>
<!-- スラット 2 -->
<rect x="686" y="325" width="524" height="24" fill="url(#g-slat-top)"/>
<rect x="686" y="347" width="524" height="2" fill="rgba(0,0,0,0.38)"/>
<rect x="686" y="349" width="524" height="1" fill="rgba(255,255,255,0.06)"/>
<!-- スラット 3 -->
<rect x="686" y="350" width="524" height="24" fill="url(#g-slat-top)"/>
<rect x="686" y="372" width="524" height="2" fill="rgba(0,0,0,0.38)"/>
<rect x="686" y="374" width="524" height="1" fill="rgba(255,255,255,0.06)"/>
<!-- スラット 4 -->
<rect x="686" y="375" width="524" height="24" fill="url(#g-slat-top)"/>
<rect x="686" y="397" width="524" height="2" fill="rgba(0,0,0,0.38)"/>
<rect x="686" y="399" width="524" height="1" fill="rgba(255,255,255,0.06)"/>
<!-- スラット 5 -->
<rect x="686" y="400" width="524" height="24" fill="url(#g-slat-top)"/>
<rect x="686" y="422" width="524" height="2" fill="rgba(0,0,0,0.38)"/>
<rect x="686" y="424" width="524" height="1" fill="rgba(255,255,255,0.06)"/>
<!-- スラット 6 -->
<rect x="686" y="425" width="524" height="24" fill="url(#g-slat-top)"/>
<rect x="686" y="447" width="524" height="2" fill="rgba(0,0,0,0.38)"/>
<rect x="686" y="449" width="524" height="1" fill="rgba(255,255,255,0.06)"/>
<!-- スラット 7 -->
<rect x="686" y="450" width="524" height="24" fill="url(#g-slat-top)"/>
<rect x="686" y="472" width="524" height="2" fill="rgba(0,0,0,0.38)"/>
<rect x="686" y="474" width="524" height="1" fill="rgba(255,255,255,0.06)"/>
<!-- スラット 8 -->
<rect x="686" y="475" width="524" height="24" fill="url(#g-slat-top)"/>
<rect x="686" y="497" width="524" height="2" fill="rgba(0,0,0,0.38)"/>
<rect x="686" y="499" width="524" height="1" fill="rgba(255,255,255,0.06)"/>
<!-- スラット 9 -->
<rect x="686" y="500" width="524" height="24" fill="url(#g-slat-top)"/>
<rect x="686" y="522" width="524" height="2" fill="rgba(0,0,0,0.38)"/>
<rect x="686" y="524" width="524" height="1" fill="rgba(255,255,255,0.06)"/>
<!-- スラット 10 -->
<rect x="686" y="525" width="524" height="24" fill="url(#g-slat-top)"/>
<rect x="686" y="547" width="524" height="2" fill="rgba(0,0,0,0.38)"/>
<rect x="686" y="549" width="524" height="1" fill="rgba(255,255,255,0.06)"/>
<!-- スラット 11 -->
<rect x="686" y="550" width="524" height="24" fill="url(#g-slat-top)"/>
<rect x="686" y="572" width="524" height="2" fill="rgba(0,0,0,0.38)"/>
<rect x="686" y="574" width="524" height="1" fill="rgba(255,255,255,0.06)"/>
<!-- スラット 12 -->
<rect x="686" y="575" width="524" height="24" fill="url(#g-slat-top)"/>
<rect x="686" y="597" width="524" height="2" fill="rgba(0,0,0,0.38)"/>
<rect x="686" y="599" width="524" height="1" fill="rgba(255,255,255,0.06)"/>
<!-- スラット 13 -->
<rect x="686" y="600" width="524" height="24" fill="url(#g-slat-top)"/>
<rect x="686" y="622" width="524" height="2" fill="rgba(0,0,0,0.38)"/>
<rect x="686" y="624" width="524" height="1" fill="rgba(255,255,255,0.06)"/>
<!-- スラット 14 -->
<rect x="686" y="625" width="524" height="24" fill="url(#g-slat-top)"/>
<rect x="686" y="647" width="524" height="2" fill="rgba(0,0,0,0.38)"/>
<rect x="686" y="649" width="524" height="1" fill="rgba(255,255,255,0.06)"/>
<!-- スラット 15 -->
<rect x="686" y="650" width="524" height="24" fill="url(#g-slat-top)"/>
<rect x="686" y="672" width="524" height="2" fill="rgba(0,0,0,0.38)"/>
<rect x="686" y="674" width="524" height="1" fill="rgba(255,255,255,0.06)"/>
<!-- スラット 16 -->
<rect x="686" y="675" width="524" height="24" fill="url(#g-slat-top)"/>
<rect x="686" y="697" width="524" height="2" fill="rgba(0,0,0,0.38)"/>
<rect x="686" y="699" width="524" height="1" fill="rgba(255,255,255,0.06)"/>
<!-- スラット 17（最終段） -->
<rect x="686" y="700" width="524" height="20" fill="url(#g-slat-top)"/>

<!-- シャッター 右光（太陽光で右側が少し明るい） -->
<rect x="1060" y="300" width="150" height="420" fill="rgba(255,255,255,0.038)" filter="url(#f-blur4)"/>

<!-- シャッター 下部 底板 -->
<rect x="682" y="716" width="532" height="6" rx="2" fill="#303030"/>
<rect x="682" y="716" width="532" height="2" rx="2" fill="rgba(255,255,255,0.12)"/>

<!-- シャッター 取っ手バー -->
<rect x="880" y="556" width="136" height="10" rx="5" fill="#484844"/>
<rect x="880" y="556" width="136" height="4" rx="4" fill="rgba(255,255,255,0.16)"/>
<rect x="880" y="562" width="136" height="4" rx="3" fill="rgba(0,0,0,0.28)"/>
<!-- 取っ手 左端ピン -->
<circle cx="888" cy="561" r="4" fill="#383834"/>
<circle cx="888" cy="561" r="2" fill="#504E48"/>
<!-- 取っ手 右端ピン -->
<circle cx="1008" cy="561" r="4" fill="#383834"/>
<circle cx="1008" cy="561" r="2" fill="#504E48"/>

<!-- シャッター 電動ユニット（上部） -->
<rect x="886" y="302" width="124" height="20" rx="2" fill="#303030"/>
<rect x="886" y="302" width="124" height="6" rx="2" fill="#3A3A3A"/>
<rect x="896" y="306" width="14" height="10" rx="1" fill="#484848"/>
<circle cx="990" cy="311" r="4" fill="#484848"/>
<circle cx="1000" cy="311" r="4" fill="#484848"/>

<!-- 開口枠 上部ハイライト（光） -->
<rect x="668" y="290" width="560" height="6" fill="rgba(255,255,255,0.12)" rx="1"/>

<!-- ====== 棟間 シャドウライン ====== -->
<rect x="650" y="168" width="12" height="554" fill="rgba(0,0,0,0.20)" filter="url(#f-blur4)"/>

<!-- ====== 建物右端 フェンス ====== -->
<rect x="1262" y="480" width="6" height="248" fill="#C4C0BC"/>
<rect x="1294" y="480" width="6" height="248" fill="#C4C0BC"/>
<rect x="1258" y="478" width="46" height="9" rx="2" fill="#CCC8C4"/>
<rect x="1258" y="585" width="46" height="7" rx="2" fill="#C4C0BC"/>
<rect x="1258" y="680" width="46" height="7" rx="2" fill="#C4C0BC"/>

<!-- 右奥 植栽 -->
<ellipse cx="1310" cy="696" rx="48" ry="26" fill="url(#g-foliage-b)" opacity="0.80"/>
<ellipse cx="1292" cy="702" rx="30" ry="16" fill="url(#g-foliage-a)" opacity="0.70"/>
<ellipse cx="1336" cy="700" rx="34" ry="18" fill="url(#g-foliage-b)" opacity="0.66"/>

<!-- ====== 太陽光 最終レイヤー ====== -->
<rect width="1440" height="900" fill="url(#g-sun)" opacity="0.55"/>

<!-- ====== 全体に微かな外光感（右上から差し込む） ====== -->
<rect x="800" y="0" width="640" height="400" fill="rgba(255,252,240,0.06)" filter="url(#f-blur8)"/>
</svg>
